<?xml version="1.0" encoding="utf-8"?>
<!-- Generator: Adobe Illustrator 25.2.1, SVG Export Plug-In . SVG Version: 6.00 Build 0)  -->
<svg version="1.1" id="Capa_1" xmlns="http://www.w3.org/2000/svg" xmlns:xlink="http://www.w3.org/1999/xlink" x="0px" y="0px"
	 viewBox="0 0 512 512" style="enable-background:new 0 0 512 512;" xml:space="preserve">
<style type="text/css">
	.st0{fill:#FFFFFF;}
</style>
<g>
	<g>
		<path class="st0" d="M507.5,101.7L352.2,256l155.3,154.3c2.8-5.9,4.5-12.4,4.5-19.3V121C512,114.1,510.3,107.6,507.5,101.7z"/>
	</g>
</g>
<g>
	<g>
		<path class="st0" d="M467,76H45c-6.9,0-13.4,1.7-19.3,4.5L224.2,278c17.5,17.5,46.1,17.5,63.6,0L486.3,80.5
			C480.4,77.7,473.9,76,467,76z"/>
	</g>
</g>
<g>
	<g>
		<path class="st0" d="M4.5,101.7C1.7,107.6,0,114.1,0,121v270c0,6.9,1.7,13.4,4.5,19.3L159.8,256L4.5,101.7z"/>
	</g>
</g>
<g>
	<g>
		<path class="st0" d="M331,277.2l-22,22c-29.2,29.2-76.8,29.2-106.1,0l-22-22L25.7,431.5c5.9,2.8,12.4,4.5,19.3,4.5h422
			c6.9,0,13.4-1.7,19.3-4.5L331,277.2z"/>
	</g>
</g>
</svg>
